# xmcd
# 
# Track frame offsets:
#     150
#     17028
#     35319
#     51020
#     68959
#     90709
#     103630
#     118988
#     134590
#     157076
#     167314
#     184977
# 
# Disc length: 2658
# 
# Revision: 4
# Processed by: cddbd v1.5.2PL0 Copyright (c) Steve Scherf et al.
# Submitted via: fre:ac v1.0.31
# 
DISCID=a30a600c
DTITLE=Ruthie Foster - Promise Of A Brand New Day
DYEAR=2014
DGENRE=Blues
TTITLE0=Singing The Blues
TTITLE1=Let Me Know
TTITLE2=My Kind Of Lover
TTITLE3=The Ghetto
TTITLE4=Outlaw
TTITLE5=Second Coming
TTITLE6=It Might Not Be Right
TTITLE7=Learning To How Fly
TTITLE8=Believe
TTITLE9=Brand New Day
TTITLE10=Complicated Love
TTITLE11=New
EXTD=YEAR: 2014
EXTT0=
EXTT1=
EXTT2=
EXTT3=
EXTT4=
EXTT5=
EXTT6=
EXTT7=
EXTT8=
EXTT9=
EXTT10=
EXTT11=
PLAYORDER=
